<svg id="Warstwa_2" data-name="Warstwa 2" xmlns="http://www.w3.org/2000/svg" width="122" height="57.661" viewBox="0 0 122 57.661">
  <g id="Calque_1" data-name="Calque 1">
    <path id="Path_28" data-name="Path 28" d="M52.651,19.153a132.123,132.123,0,0,0-14.109,5.419q-4.424,1.984-8.714,4.15c4.556-3.95,8.747-13.03,6.249-21.387C47.555,18.016,57.39,9.468,62.038,2.1c.29,5.81,11.619,11.619,21.13,12.54-6.565,2.075-11.453,6.042-13.2,15.686-8.64-4.042-14.864-.83-19.694,10.017-5.735-6.756-11.669-9.544-19.86-9.876,2.971-1.386,5.951-2.764,8.947-4.1,4.556-2.025,9.129-3.984,13.793-5.81,1.162-.448,2.332-.83,3.511-1.286l1.759-.614,1.776-.573A65.567,65.567,0,0,1,67.457,16.2a41.5,41.5,0,0,0-7.528.988C57.489,17.726,55.049,18.4,52.651,19.153Z" transform="translate(38.833 2.732)" fill="#036838"/>
    <path id="Path_29" data-name="Path 29" d="M0,0C5.727,3.826,11.876,5.162,20.491.5c2.249,9.27,8.615,12.142,20.126,9.129-1.66,8.7-.149,15.072,4.722,21.661-2.938-1.452-5.876-2.921-8.789-4.424-4.432-2.291-8.822-4.648-13.121-7.162-1.079-.622-2.133-1.286-3.2-1.934l-1.585-1-1.56-1a65.248,65.248,0,0,1-6-4.49,41.7,41.7,0,0,0,5.419,5.27c1.95,1.6,4,3.087,6.092,4.482a129.81,129.81,0,0,0,13.088,7.586q4.291,2.216,8.714,4.191c-5.934-1.087-15.653,1.32-20.607,8.49,1.1-15.57-11.719-17.943-20.375-16.964C7.752,20.491,5.212,7.992,0,0Z" fill="#036838"/>
    <path id="Path_30" data-name="Path 30" d="M24.307,21.436a9.685,9.685,0,0,0,10.656-6.5,9.079,9.079,0,1,1-10.856,7.469,8.961,8.961,0,0,1,.2-.971Z" transform="translate(31.24 19.447)" fill="#80171b"/>
    <path id="Path_31" data-name="Path 31" d="M20.976,16.985A8.515,8.515,0,1,1,37.782,19.7a8.233,8.233,0,0,1-.39,1.51,8.507,8.507,0,0,1-9.129,5.569h-.249a8.523,8.523,0,0,1-7.038-9.793Z" transform="translate(27.16 12.494)" fill="#80171b"/>
    <path id="Path_32" data-name="Path 32" d="M14.239,24.738a11,11,0,0,1,17.221-7.2,11.155,11.155,0,0,1,1.751,1.552,10.988,10.988,0,1,1-18.989,5.644Z" transform="translate(18.335 20.194)" fill="#80171b"/>
  </g>
</svg>
