<svg xmlns="http://www.w3.org/2000/svg" viewBox="0 0 318.61 44.58"><defs><style>.cls-1{fill:#fff;}.cls-2{fill:#f29f5c;}.cls-3{fill:#d37d42;}.cls-4{fill:#f9c295;}.cls-5{fill:#e59f6a;}.cls-6{fill:#ddd;}.cls-7{fill:#efefef;}.cls-8{fill:#ebeef2;}.cls-9{fill:#333;}.cls-10{fill:#bb2528;}</style></defs><title>Zasób 1</title><g id="Warstwa_2" data-name="Warstwa 2"><g id="Capa_1" data-name="Capa 1"><rect class="cls-1" width="318.61" height="43.59" rx="10.13"/><path class="cls-2" d="M182.16,25l-1.41-11.46-2.65.33h0L173,11a3.05,3.05,0,0,0-1.8-.38l-8.09.75a3.08,3.08,0,0,0-2.38,1.52L155,22.67a1.36,1.36,0,0,0,.69,1.95l.23.09a5.12,5.12,0,0,0,1.37.31l-.72.63-1.44,1.25L151,30.41a1.75,1.75,0,0,0-.17,2.48l.41.48a2.26,2.26,0,0,0,3.19.21L156,35.39a2.26,2.26,0,0,0,2,.75,2.19,2.19,0,0,0,1.2-.54l1.57,1.81a2.26,2.26,0,0,0,2,.75,2.31,2.31,0,0,0,1.21-.53l.85.73a2.26,2.26,0,0,0,3.19.22l1.16-1L178.91,30h3.86Z"/><path class="cls-3" d="M178,27h0l-9.75,7.59-1.16,1a2.25,2.25,0,0,1-3.18-.22l-.86-.74a2.19,2.19,0,0,1-1.2.54,2.26,2.26,0,0,1-2-.75l-1.57-1.81a2.22,2.22,0,0,1-1.21.54,2.26,2.26,0,0,1-2-.75l-1.57-1.81a2.26,2.26,0,0,1-2.79.14,1.75,1.75,0,0,0,.14,2.12l.41.48a2.26,2.26,0,0,0,3.19.21L156,35.39a2.26,2.26,0,0,0,2,.75,2.19,2.19,0,0,0,1.2-.54l1.57,1.81a2.29,2.29,0,0,0,3.19.22l.85.73a2.26,2.26,0,0,0,3.19.22l1.16-1L178.91,30h3.86l-.43-3.46Z"/><path class="cls-4" d="M179.75,32l-5.22-4.5-1.45-1.25-1-.9-4.47-3.85.52-4.39a3,3,0,0,0-2.2-3.28l-9.74-2.69a2.25,2.25,0,0,0-2.61,1.14l-1.23,2.4-5.25-.36-1.35,11.46-.59,5,5.12.34h0l10.69,9.22,1.17,1a2.25,2.25,0,0,0,3.18-.23l1.56-1.81a2.31,2.31,0,0,0,1.21.53,2.28,2.28,0,0,0,2-.77l1.56-1.81a2.17,2.17,0,0,0,1.21.53,2.24,2.24,0,0,0,2-.76l1.56-1.81a2.26,2.26,0,0,0,3.18-.24l.42-.48A1.76,1.76,0,0,0,179.75,32Z"/><path class="cls-5" d="M179.75,32l-1.59-1.37a1.87,1.87,0,0,1-.07,2.34l-.44.51a2.4,2.4,0,0,1-3.38.25l-1.66,1.92a2.39,2.39,0,0,1-2.1.82,2.51,2.51,0,0,1-1.28-.57l-1.65,1.92a2.4,2.4,0,0,1-2.1.82A2.36,2.36,0,0,1,164.2,38L162.54,40a2.36,2.36,0,0,1-1.14.74l.71.6a2.25,2.25,0,0,0,3.18-.23l1.56-1.81a2.31,2.31,0,0,0,1.21.53,2.28,2.28,0,0,0,2-.77l1.56-1.81a2.17,2.17,0,0,0,1.21.53,2.24,2.24,0,0,0,2-.76l1.56-1.81a2.26,2.26,0,0,0,3.18-.24l.42-.48A1.76,1.76,0,0,0,179.75,32Z"/><path class="cls-2" d="M150.51,31.06l-.62.82a2,2,0,0,0,.39,2.83h0a2,2,0,0,0,2.84-.39l.61-.81a2,2,0,0,0-.39-2.84h0A2,2,0,0,0,150.51,31.06Z"/><path class="cls-2" d="M154.28,32.78l-1.16,1.54a2,2,0,0,0,.39,2.84h0a2,2,0,0,0,2.83-.39l1.17-1.54a2,2,0,0,0-.39-2.84h0A2,2,0,0,0,154.28,32.78Z"/><path class="cls-2" d="M157.93,34.67l-1.59,2.1a2,2,0,0,0,.39,2.83h0a2,2,0,0,0,2.84-.39l1.59-2.1a2,2,0,0,0-.4-2.83h0A2,2,0,0,0,157.93,34.67Z"/><path class="cls-2" d="M161.25,37l-1.68,2.22A2,2,0,0,0,160,42h0a2,2,0,0,0,2.83-.39l1.68-2.22a2,2,0,0,0-.39-2.83h0A2,2,0,0,0,161.25,37Z"/><path class="cls-2" d="M178.1,13.85,173,11a3.05,3.05,0,0,0-1.8-.38l-8.09.75a3.08,3.08,0,0,0-2.38,1.52L155,22.67a1.36,1.36,0,0,0,.69,1.95l.23.09a5.09,5.09,0,0,0,5.82-1.65l2.18-2.85s5.25,6.08,11-1"/><text/><path class="cls-6" d="M185.14,29.91a2.36,2.36,0,0,1-2.6-1.83l.29,2.41a2.17,2.17,0,0,0,2.41,1.88l6.27-.77-.3-2.44Z"/><path class="cls-7" d="M140.3,9.83,137.62,31.6l6.26.77a2.16,2.16,0,0,0,2.41-1.88L148.44,13a2.15,2.15,0,0,0-1.88-2.41Z"/><path class="cls-6" d="M144,29.86l-6.1-.75-.31,2.49,6.26.77a2.16,2.16,0,0,0,2.41-1.88l.23-1.85A2.54,2.54,0,0,1,144,29.86Z"/><circle class="cls-8" cx="187.12" cy="28.01" r="1.57"/><circle class="cls-8" cx="141.92" cy="28.01" r="1.57"/><path class="cls-9" d="M164.57,36a2.83,2.83,0,0,0-2.23-.53,2.83,2.83,0,0,0-3.18-2.34,2.37,2.37,0,0,0-.54.13,2.84,2.84,0,0,0-3.81-1.83,2.77,2.77,0,0,0-1-1.36,2.83,2.83,0,0,0-3.69.23l-3-.2L149,15.23l3.27.23h.05A.82.82,0,0,0,153,15l1.22-2.39a1.45,1.45,0,0,1,1.67-.74l1.82.51a.81.81,0,1,0,.43-1.57l-1.82-.5a3.06,3.06,0,0,0-3.54,1.55l-1,1.92-2.64-.18.06-.51a3,3,0,0,0-2.59-3.32L140.4,9a.82.82,0,0,0-.2,1.62l6.26.77a1.3,1.3,0,0,1,.9.51,1.35,1.35,0,0,1,.28,1l-2.15,17.48A1.36,1.36,0,0,1,144,31.56l-6.26-.77a.81.81,0,1,0-.2,1.61l6.27.77.36,0a3,3,0,0,0,2.6-1.54l2.23.14a2.84,2.84,0,0,0,2.52,4.14,2.56,2.56,0,0,0,.39,0h0v0a2.81,2.81,0,0,0,1.1,1.88,2.85,2.85,0,0,0,1.7.57,3,3,0,0,0,.42,0,2.86,2.86,0,0,0,1.1,1.9,2.79,2.79,0,0,0,1.71.57,3,3,0,0,0,.42,0v0a2.85,2.85,0,0,0,2.8,2.45,2.69,2.69,0,0,0,.4,0,2.78,2.78,0,0,0,1.87-1.1l1.68-2.22A2.83,2.83,0,0,0,164.57,36Zm-12.9-1.65a1.25,1.25,0,0,1-.9-.23,1.23,1.23,0,0,1-.47-.8,1.22,1.22,0,0,1,.24-.9l.62-.82a1.2,1.2,0,0,1,.8-.46,1.14,1.14,0,0,1,.89.23,1.17,1.17,0,0,1,.47.8,1.22,1.22,0,0,1-.23.89l-.62.82A1.19,1.19,0,0,1,151.67,34.3ZM154,36.51a1.19,1.19,0,0,1-.47-.8,1.25,1.25,0,0,1,.23-.9l.62-.81h0l.55-.73a1.23,1.23,0,0,1,1-.48,1.15,1.15,0,0,1,.72.25,1.2,1.2,0,0,1,.24,1.69l-1.17,1.54A1.2,1.2,0,0,1,154,36.51ZM157.22,39a1.2,1.2,0,0,1-.46-.8,1.13,1.13,0,0,1,.23-.89h0l1.17-1.54h0l.42-.56a1.17,1.17,0,0,1,.8-.47,1.21,1.21,0,0,1,1.13,1.93l-1.59,2.1h0A1.22,1.22,0,0,1,157.22,39Zm6.61,0-1.69,2.22a1.21,1.21,0,0,1-.8.47,1.19,1.19,0,0,1-.89-.24,1.15,1.15,0,0,1-.47-.79,1.25,1.25,0,0,1,.23-.9l1.59-2.1h0l.09-.12a1.17,1.17,0,0,1,.8-.47,1.21,1.21,0,0,1,1.13,1.93Z"/><path class="cls-9" d="M192.31,31.5a.8.8,0,0,0-.9-.71l-6.27.77a1.34,1.34,0,0,1-1.5-1.17l-.06-.52h0l0-.12-2.07-16.84a1.3,1.3,0,0,1,.27-1,1.32,1.32,0,0,1,.9-.51l6.27-.77a.82.82,0,0,0-.2-1.62l-6.27.77a3,3,0,0,0-2.61,3l-1.58.2-4.89-2.76a3.9,3.9,0,0,0-2.27-.48h0l-1.47.13a.82.82,0,0,0-.73.89.8.8,0,0,0,.88.73l1.48-.13a2.25,2.25,0,0,1,1.32.28l5.08,2.86a.78.78,0,0,0,.54.12l1.84-.22,1.34,10.93.47,3.78h-2.93a.86.86,0,0,0-.53.19l-.23.18-7.34-6.33a9.85,9.85,0,0,0,4.77-3.49.81.81,0,1,0-1.26-1c-1.67,2.05-3.43,3.11-5.23,3.14a6.62,6.62,0,0,1-4.55-2.14.86.86,0,0,0-.64-.28.78.78,0,0,0-.62.32l-2.19,2.84A4.23,4.23,0,0,1,156.22,24l-.23-.09a.54.54,0,0,1-.32-.32.55.55,0,0,1,0-.46l5.7-9.81a2.25,2.25,0,0,1,1.76-1.12l3.37-.32a.81.81,0,0,0,.74-.88.82.82,0,0,0-.89-.74l-3.37.32a3.87,3.87,0,0,0-3,1.92l-5.71,9.81a2.18,2.18,0,0,0,1.11,3.12l.24.09a5.82,5.82,0,0,0,6.74-1.92L164,21.43a8,8,0,0,0,4.58,2l10.62,9.15a.93.93,0,0,1,.33.64.92.92,0,0,1-.23.69l-.41.48a1.45,1.45,0,0,1-2,.15l-.11-.08L174,32.09A.82.82,0,0,0,173,33.33l2.24,1.93-1,1.18a1.44,1.44,0,0,1-1.26.5,1.54,1.54,0,0,1-.77-.34h0l-2.57-2.21a.8.8,0,0,0-1.14.08.81.81,0,0,0,.08,1.15l2,1.69-1,1.19a1.44,1.44,0,0,1-1.26.49.83.83,0,0,0-.91.72.82.82,0,0,0,.72.9l.36,0a3.07,3.07,0,0,0,2.32-1.07l1.1-1.27a3.2,3.2,0,0,0,1,.27,3.08,3.08,0,0,0,2.69-1l1.1-1.28a3.07,3.07,0,0,0,3.64-.77l.41-.48a2.55,2.55,0,0,0-.27-3.62l-.66-.58h2.44A3,3,0,0,0,185,33.2a2.22,2.22,0,0,0,.37,0l6.27-.77A.8.8,0,0,0,192.31,31.5Z"/><path class="cls-9" d="M187.12,25.63A2.39,2.39,0,1,0,189.5,28,2.39,2.39,0,0,0,187.12,25.63Zm0,3.14a.76.76,0,1,1,.75-.76A.76.76,0,0,1,187.12,28.77Z"/><path class="cls-9" d="M144.31,28a2.39,2.39,0,1,0-2.39,2.39A2.39,2.39,0,0,0,144.31,28Zm-3.15,0a.76.76,0,1,1,.76.76A.76.76,0,0,1,141.16,28Z"/><path class="cls-10" d="M12,31.13l3.52-4.24A9.48,9.48,0,0,0,21,29.15c1.87,0,2.66-.61,2.66-1.65S22.48,26,20.5,25.23L17.59,24a6.88,6.88,0,0,1-4.71-6.5c0-4,3.59-7.26,8.7-7.26a11.23,11.23,0,0,1,7.76,3.13l-3.09,3.88a7.67,7.67,0,0,0-4.67-1.69c-1.51,0-2.45.54-2.45,1.58s1.33,1.51,3.45,2.33l2.84,1.12C28.33,21.75,30,23.76,30,27c0,4-3.31,7.48-9.13,7.48A13.53,13.53,0,0,1,12,31.13Zm6.47-24.4L25,1.55l3.23,4-7,4.31Z"/><path class="cls-10" d="M31.5,10.68h6.32l1.3,10.21c.25,2.44.54,4.88.79,7.33h.14c.43-2.45.86-4.93,1.29-7.33l2.23-10.21h5.18L51,20.89c.44,2.33.87,4.85,1.3,7.33h.14c.25-2.48.54-5,.79-7.33l1.3-10.21h5.89L56.51,34H48.67l-1.79-9.27C46.52,23,46.23,21,46,19.31h-.15C45.62,21,45.37,23,45,24.77L43.28,34H35.59Z"/><path class="cls-10" d="M63.34,10.68h6.18V34H63.34Z"/><path class="cls-10" d="M82.46,38.71A5.81,5.81,0,0,1,85.33,34H74.7V10.68H89.79v5.17H80.88v3.67H88.5v5.17H80.88v4.17h9.27V34h-.22a3.15,3.15,0,0,0-3,3c0,.86.71,1.22,1.43,1.22a2.42,2.42,0,0,0,1.22-.51l1.37,3.09a7.3,7.3,0,0,1-4.1,1.37C84.4,42.23,82.46,40.94,82.46,38.71Z"/><path class="cls-10" d="M99.14,15.85H93V10.68H111.5v5.17h-6.18V34H99.14Z"/><path class="cls-10" d="M117.68,10.68h7.47L132.27,34h-6.54l-2.66-11.36c-.57-2.23-1.15-5.06-1.72-7.4h-.15c-.5,2.37-1.08,5.17-1.65,7.4L116.89,34h-6.32Zm-2,13.62H127.1v4.78H115.67Z"/><text/><path class="cls-10" d="M198,9.89h9c5.13,0,9.54,1.73,9.54,7.55,0,5.64-4.41,8-9.54,8h-2.72v7.84H198Zm8.58,10.64c2.49,0,3.81-1.08,3.81-3.09s-1.32-2.66-3.81-2.66h-2.28v5.75Zm-.7,3.27,4.26-4.1,7.74,13.55h-7.05Z"/><path class="cls-10" d="M225,9.89h7.63l7.27,23.36H233.2l-2.71-11.36c-.59-2.22-1.18-5.06-1.77-7.4h-.14c-.52,2.37-1.1,5.18-1.69,7.4l-2.71,11.36h-6.46Zm-2,13.62h11.66v4.78H222.93Z"/><path class="cls-10" d="M240.68,29.51l9.76-14.44h-8.8V9.89h16.58v3.74l-9.76,14.44h9.83v5.18H240.68Z"/><path class="cls-10" d="M261.67,9.89h15.4v5.18H268v3.66h7.77v5.18H268v4.16h9.46v5.18H261.67Z"/><path class="cls-10" d="M282.06,9.89h6.75l3.6,9.56c.44,1.29.8,2.73,1.24,4.1h.15c.44-1.37.81-2.81,1.25-4.1l3.45-9.56h6.75V33.25h-5.73v-6.9a80.33,80.33,0,0,1,.81-8.34h-.15l-2,5.61-2.93,7.72h-3.38L289,23.62,287.05,18h-.14a80.31,80.31,0,0,1,.8,8.34v6.9h-5.65Z"/></g></g></svg>